<svg width="146" height="81" xmlns="http://www.w3.org/2000/svg"><path d="M18.255 79.93a13.858 13.858 0 01-5.06 1.07c-1.72 0-3.406-.345-5.024-1.001a13.114 13.114 0 01-7.159-7.147c-2.788-6.732.379-14.5 7.09-17.296L47.51 39.053c3.235-1.38 6.814-1.38 10.084-.034 1.377.587 2.581 1.38 3.683 2.347l8.225-3.452-10.118-24.34c-1.343-3.21-.93-6.8 1.135-9.597C62.584 1.181 65.923-.269 69.33.041l67.768 6.387c3.682.346 6.711 2.59 8.122 6.007 1.411 3.418.895 7.147-1.445 10.012L100.65 75.338c-1.893 2.313-4.612 3.59-7.537 3.59-.482 0-.964-.034-1.446-.103-3.442-.518-6.264-2.727-7.606-5.938L74.458 49.79l-8.88 3.729c-.756 4.28-3.579 8.113-7.88 9.908zM63.72 44.06c.413.62.792 1.311 1.102 2.036.482 1.174.722 2.383.86 3.59l9.052-3.797 20.478-8.562c1.48-.621 2.203-2.382 1.583-3.901-.62-1.485-2.375-2.21-3.889-1.588zm8.983-7.458l18.895-7.906c3.27-1.38 7.056.173 8.398 3.453 1.377 3.28-.172 7.043-3.442 8.424L77.66 48.479l9.603 23.096c.86 2.071 2.684 3.521 4.921 3.832 2.203.31 4.406-.518 5.817-2.278l43.159-52.822c1.48-1.864 1.858-4.281.929-6.49-.929-2.21-2.891-3.66-5.266-3.902L69.021 3.494c-2.238-.207-4.371.725-5.714 2.555-1.342 1.795-1.617 4.142-.757 6.214zM9.444 76.788c2.41.967 5.06.967 7.469-.034l39.476-16.537c4.956-2.072 7.297-7.803 5.232-12.774-.448-1.07-1.102-2.003-1.859-2.831-.034 0-.034-.035-.069-.07a9.737 9.737 0 00-3.372-2.347 10.029 10.029 0 00-3.717-.725 9.468 9.468 0 00-3.752.76L9.41 58.732c-4.956 2.072-7.296 7.803-5.231 12.774a9.762 9.762 0 005.265 5.282z"/></svg>