<svg width="134" height="82" xmlns="http://www.w3.org/2000/svg"><path d="M66.116 0c.63 0 1.126.495 1.126 1.126v18.6H88.5c.63 0 1.126.496 1.126 1.127v18.6h20.042c.63 0 1.126.496 1.126 1.126V59.18h21.888c.631 0 1.126.496 1.126 1.126v19.727c0 .63-.495 1.126-1.126 1.126H1.126A1.115 1.115 0 010 80.033V1.126C.022.518.54 0 1.148 0zm-1.374 59.203V41.728h-41.3v17.475zm22.902 2.252H46.21v17.474h41.435zM2.274 22v17.475h41.3V22.001zM21.19 59.203V41.728H2.274v17.475zM2.274 19.749H21.19V2.274H2.274zM64.99 2.252H23.442v17.475H64.99zm22.384 19.75h-41.3v17.474h41.3zm44.183 39.453H90.12v17.474h41.436zm-23.015-2.252V41.728H66.994v17.475zM43.957 78.952V61.477H2.274v17.475z"/></svg>