<svg width="128" height="130" xmlns="http://www.w3.org/2000/svg"><path d="M70.336.37c6.315 0 11.458 5.144 11.458 11.458v48.823c0 6.314-5.143 11.458-11.458 11.458h-5.98a4.848 4.848 0 01-4.579 4.12V87.56c0 7.402-4.37 13.779-10.643 16.769v3.68a7.953 7.953 0 01-3.763 6.775v4.432c0 1.129.92 2.028 2.049 2.028h20.846a2.03 2.03 0 002.028-2.028V98.183c0-10.434 8.49-18.923 18.923-18.923 10.434 0 18.923 8.49 18.923 18.923v18.902c0 2.3 1.882 4.181 4.182 4.181h10.872c2.3 0 4.182 1.882 4.182 4.182 0 2.3-1.882 4.182-4.182 4.182h-10.83c-6.922 0-12.546-5.625-12.546-12.545V98.183c0-5.834-4.746-10.56-10.56-10.56-5.833 0-10.558 4.747-10.558 10.56v21.055c0 5.729-4.663 10.392-10.392 10.392H47.46c-5.729 0-10.412-4.663-10.412-10.392v-4.767c-1.966-1.443-3.241-3.785-3.241-6.461v-3.45c-6.545-2.865-11.145-9.41-11.145-17.02V76.207a4.828 4.828 0 01-4.579-4.119h-5.98C5.79 72.088.646 66.944.646 60.63V11.828C.625 5.493 5.769.37 12.083.37zM39.12 119.238c0 4.579 3.722 8.301 8.322 8.301h20.846c4.579 0 8.3-3.722 8.3-8.301V98.183c0-6.984 5.667-12.65 12.65-12.65 6.985 0 12.65 5.666 12.65 12.65v18.902c0 5.77 4.685 10.454 10.455 10.454h10.852c1.15 0 2.091-.941 2.091-2.091 0-1.15-.94-2.091-2.09-2.091h-10.832a6.278 6.278 0 01-6.272-6.272V98.183c0-9.284-7.549-16.832-16.832-16.832-9.284 0-16.832 7.548-16.832 16.832v21.055a4.127 4.127 0 01-4.12 4.119H47.462c-2.279 0-4.14-1.861-4.14-4.119v-3.554a7.533 7.533 0 01-1.84.251c-.815 0-1.61-.168-2.341-.419v3.722zm-3.241-11.228c0 3.22 2.509 5.855 5.603 5.855 3.095 0 5.604-2.614 5.604-5.855v-2.844c-1.84.607-3.805.962-5.854.962-1.861 0-3.639-.272-5.332-.794v2.676zM24.733 87.56c0 9.096 7.402 16.477 16.477 16.477 9.095 0 16.476-7.402 16.476-16.476V76.249H24.712v11.312zm-1.882-13.402h36.738a2.757 2.757 0 002.76-2.76 2.757 2.757 0 00-2.76-2.76H22.85a2.758 2.758 0 00-2.76 2.76 2.758 2.758 0 002.76 2.76zm13.027-22.226v9.158c2.467.293 8.217.293 10.684 0v-9.158c0-2.823 2.3-5.144 5.144-5.144a5.14 5.14 0 015.144 5.144v4.39c6.21-4.808 9.89-12.168 9.89-20.072 0-14.072-11.438-25.51-25.468-25.51-14.07 0-25.509 11.438-25.509 25.51 0 7.904 3.68 15.243 9.89 20.073v-4.391c-.042-2.844 2.258-5.144 5.081-5.144 2.823 0 5.144 2.3 5.144 5.144zm-8.176 14.615h6.085V51.932a3.056 3.056 0 00-3.053-3.053 3.026 3.026 0 00-3.032 3.053zm8.176 0h10.684v-3.366c-1.359.146-3.324.209-5.31.209-2.008 0-3.994-.063-5.374-.21zm12.775 0h6.085V51.932a3.056 3.056 0 00-3.053-3.053c-1.694 0-3.032 1.36-3.032 3.053zM2.716 60.651c0 5.164 4.203 9.367 9.367 9.367h6.127c.606-2.007 2.425-3.47 4.621-3.47h2.76v-7.612c-7.486-5.164-11.98-13.57-11.98-22.686 0-15.222 12.377-27.6 27.599-27.6 15.2 0 27.558 12.378 27.558 27.6 0 9.095-4.475 17.522-11.981 22.686v7.611h2.76a4.81 4.81 0 014.62 3.471h6.127c5.165 0 9.367-4.203 9.367-9.367V11.828c0-5.164-4.202-9.367-9.367-9.367H12.041c-5.164 0-9.367 4.203-9.367 9.367v48.823z"/></svg>