<svg width="104" height="120" xmlns="http://www.w3.org/2000/svg"><path d="M42.716 69.06c2.255 0 4.096 1.841 4.077 4.096v32.54a4.105 4.105 0 01-4.096 4.096H26.446a4.105 4.105 0 01-4.096-4.096v-32.54a4.105 4.105 0 014.096-4.096zm2.198 36.636v-32.54a2.221 2.221 0 00-2.217-2.217H26.446a2.221 2.221 0 00-2.217 2.217v32.54a2.22 2.22 0 002.217 2.217h16.27a2.221 2.221 0 002.217-2.217zM77.547 69.06a4.105 4.105 0 014.096 4.096v32.54a4.105 4.105 0 01-4.096 4.096H61.296a4.105 4.105 0 01-4.096-4.096v-32.54a4.105 4.105 0 014.096-4.096zm2.217 4.096a2.221 2.221 0 00-2.217-2.217H61.296a2.221 2.221 0 00-2.217 2.217v32.54a2.22 2.22 0 002.217 2.217h16.251a2.221 2.221 0 002.217-2.217zM26.446 50.397a4.105 4.105 0 01-4.096-4.095V14.306a4.105 4.105 0 014.096-4.096h51.103a4.105 4.105 0 014.095 4.096v31.996a4.105 4.105 0 01-4.095 4.095zm-2.217-4.096a2.22 2.22 0 002.217 2.217h51.103a2.221 2.221 0 002.217-2.217V14.306a2.221 2.221 0 00-2.217-2.217H26.446a2.221 2.221 0 00-2.217 2.217zm59.301 13.7a4.947 4.947 0 01-4.942 4.941 4.94 4.94 0 01-4.847-4.001H61.829a.93.93 0 01-.939-.94.93.93 0 01.94-.94h11.91c.452-2.273 2.443-4.001 4.848-4.001a4.947 4.947 0 014.941 4.941zm-1.88 0a3.063 3.063 0 00-3.062-3.062 3.055 3.055 0 00-3.043 2.912c.018.056.037.094.037.15 0 .057-.037.094-.037.15a3.055 3.055 0 003.043 2.913A3.063 3.063 0 0081.651 60z"/><path d="M102.769 117.305c.526 0 .958.413.958.939a.93.93 0 01-.939.94H1.239a.93.93 0 01-.939-.94.93.93 0 01.94-.939h11.723V6.607A5.79 5.79 0 0118.75.82h66.49a5.79 5.79 0 015.787 5.787v110.698zm-87.927 0h74.325V6.607a3.905 3.905 0 00-3.908-3.908h-66.51a3.905 3.905 0 00-3.907 3.908z"/></svg>