<svg width="116" height="116" xmlns="http://www.w3.org/2000/svg"><path d="M110.693 17.712a4.59 4.59 0 014.582 4.6v14.254a4.613 4.613 0 01-3.055 4.328l-12.127 3.472v12.946a6.58 6.58 0 01-6.582 6.582c-3.637 0-6.582-2.964-6.582-6.582V48.13l-2.745.782c-1.037.382-1.782 1.436-1.782 2.6v18h3.036a2.518 2.518 0 012.364 3.363l-1.691 4.691h.673a3.29 3.29 0 013.29 3.291v25.855a8.566 8.566 0 01-8.563 8.563 8.566 8.566 0 01-8.564-8.563V80.857a3.29 3.29 0 013.291-3.29h.673l-1.691-4.692a2.513 2.513 0 01.31-2.29 2.51 2.51 0 012.054-1.073h3.036v-18a4.612 4.612 0 013.054-4.328l3.31-.945v-1.636a4.753 4.753 0 00-4.746-4.764 4.768 4.768 0 00-4.763 4.764v5.436a6.58 6.58 0 01-6.582 6.582c-3.637 0-6.582-2.964-6.582-6.582v-2.745a4.753 4.753 0 00-4.746-4.764 4.768 4.768 0 00-4.763 4.764v2.745a6.58 6.58 0 01-6.582 6.582c-3.636 0-6.582-2.964-6.582-6.582v-2.927a4.753 4.753 0 00-4.745-4.764 4.768 4.768 0 00-4.764 4.764v4.745a6.58 6.58 0 01-6.582 6.582c-3.636 0-6.582-2.964-6.582-6.582V30.894c0-.128.037-.237.073-.346-.036-.218-.073-.436-.073-.673v-1.818H17.53a4.105 4.105 0 01-4.109-4.109V13.294a4.105 4.105 0 014.11-4.11h1.435V7.367c0-3.654 2.982-6.636 6.637-6.636h67.854c3.655 0 6.637 2.982 6.637 6.636v1.819h1.436a4.105 4.105 0 014.11 4.109v4.418zm-91.728-6.71H17.53a2.293 2.293 0 00-2.29 2.292v10.654a2.293 2.293 0 002.29 2.291h1.436zm57.273 68.382c-.818 0-1.472.655-1.472 1.473v25.855c0 3.709 3.018 6.745 6.745 6.745 3.709 0 6.745-3.018 6.745-6.745V80.857c0-.818-.654-1.472-1.472-1.472zm1.327-8.054a.652.652 0 00-.563.29.671.671 0 00-.091.637l1.927 5.31h5.346l1.927-5.31a.716.716 0 00-.091-.636.673.673 0 00-.564-.291zm22.528-45.09h1.436a2.293 2.293 0 002.291-2.292V13.294a2.293 2.293 0 00-2.29-2.291h-1.437zM20.802 7.365v22.51c0 1.345.618 2.672 1.6 3.563a4.842 4.842 0 003.2 1.255h67.854c2.564 0 4.819-2.255 4.819-4.819V7.366a4.826 4.826 0 00-4.819-4.818H25.602a4.826 4.826 0 00-4.818 4.818zm77.454 49.946V44.876l-9.509 2.727v9.709a4.757 4.757 0 004.764 4.764 4.768 4.768 0 004.763-4.764zm.019-22.873c-.019.018-.055.037-.073.055-1.218 1.254-3 2.018-4.746 2.018H25.547c-1.745 0-3.527-.746-4.745-2.018-.018-.018-.055-.037-.073-.055v17.437a4.757 4.757 0 004.764 4.763 4.768 4.768 0 004.763-4.764V47.13c0-3.636 2.964-6.582 6.582-6.582s6.564 2.964 6.564 6.582v2.927a4.757 4.757 0 004.764 4.764 4.768 4.768 0 004.763-4.764v-2.745c0-3.636 2.946-6.582 6.564-6.582 3.654 0 6.6 2.964 6.6 6.582v2.745a4.757 4.757 0 004.763 4.764 4.768 4.768 0 004.764-4.764v-5.436c0-3.636 2.964-6.582 6.582-6.582s6.563 2.964 6.563 6.582v1.109l9.51-2.727zm15.181-12.127a2.762 2.762 0 00-2.763-2.764h-5.055v4.418a4.105 4.105 0 01-4.109 4.11h-1.436v1.818c0 .236-.055.454-.073.672.054.11.073.218.073.346v11.564l11.581-3.31c1.037-.382 1.782-1.436 1.782-2.6z"/><path d="M57.76 73.633c.746.981 1 2.236.691 3.436a29.629 29.629 0 01-6.254 11.836l-2.436 21.837a5.08 5.08 0 01-5.055 4.527h-30.09a5.094 5.094 0 01-5.055-4.527L7.124 88.905A29.56 29.56 0 01.87 77.087a3.89 3.89 0 01.69-3.436 4.086 4.086 0 011.8-1.291 5.005 5.005 0 01-1.436-3.527c0-2.8 2.273-5.073 5.073-5.073h45.31c2.8 0 5.072 2.273 5.072 5.073a5.037 5.037 0 01-1.436 3.527 4.104 4.104 0 011.818 1.273zM6.717 85.439c-.01-.02-.01-.05-.01-.079-.218-1.927-.418-3.836-.636-5.745-.218-1.928-.364-4-.673-5.873-.782.073-1.91.4-2.4 1.036a2.118 2.118 0 00-.382 1.855 27.542 27.542 0 004.1 8.806zm.008.012zm43.382 5.618a30.528 30.528 0 01-3.582 2.873 4.479 4.479 0 01-2.054 4.673c-4.51 2.745-9.673 4.127-14.837 4.127-5.163 0-10.327-1.382-14.836-4.127a4.478 4.478 0 01-2.055-4.673c-1.272-.891-2.472-1.836-3.581-2.891l2.181 19.49a3.27 3.27 0 003.255 2.91h30.09a3.27 3.27 0 003.256-2.91zm-34.345 5.982c8.436 5.145 19.345 5.145 27.781 0a2.682 2.682 0 00.891-3.673 2.682 2.682 0 00-3.672-.89c-6.764 4.108-15.473 4.108-22.219 0a2.637 2.637 0 00-1.381-.383c-.946 0-1.8.491-2.291 1.291-.764 1.255-.364 2.91.89 3.655zm36.29-23.127H7.27l1.582 14.2a28.851 28.851 0 004.654 4.127c.855-1.218 2.182-1.946 3.673-1.946a4.42 4.42 0 012.327.655c6.164 3.764 14.145 3.764 20.31 0 2.035-1.254 4.654-.654 6 1.273a27.776 27.776 0 004.635-4.11zm.255-1.837c1.8 0 3.255-1.472 3.255-3.254a3.263 3.263 0 00-3.255-3.255H6.997a3.275 3.275 0 00-3.255 3.255 3.263 3.263 0 003.255 3.254zm4.382 4.528a2.13 2.13 0 00-.382-1.855c-.618-.818-1.509-.746-2.382-1.055-.036.11-.054.273-.072.382-.182.8-.219 1.873-.31 2.691-.127 1.273-.272 2.527-.418 3.8l-.545 4.855a27.366 27.366 0 004.109-8.818z"/></svg>