<svg width="100" height="110" xmlns="http://www.w3.org/2000/svg"><path d="M99.646 5.944a.81.81 0 01-.328.69L84.1 18.813l.898 1.123c2.142 2.677 1.71 6.598-.967 8.74l-5.2 4.162a3.4 3.4 0 01-2.159.76 3.498 3.498 0 01-2.712-1.295l-1.658-2.073-4.577 3.662 4.49 5.614c1.158 1.45.934 3.575-.517 4.732l-3.887 3.11.933 1.157c.587.743.864 1.675.76 2.625a3.534 3.534 0 01-1.313 2.384L57.086 62.39l10.554 7.997a3.848 3.848 0 011.502 2.989 3.77 3.77 0 01-1.433 3.022l-5.13 4.111 7.082 8.861 11.728-9.396a5.492 5.492 0 014.093-1.192 5.569 5.569 0 013.731 2.055 5.492 5.492 0 011.192 4.094 5.568 5.568 0 01-2.055 3.73l-24.424 19.502a5.568 5.568 0 01-3.472 1.226c-.207 0-.414-.017-.622-.034a5.571 5.571 0 01-3.73-2.056l-21.54-26.928-.88.708a20.406 20.406 0 01-12.8 4.491c-6.028 0-12.004-2.625-16.046-7.686-7.065-8.827-5.63-21.781 3.213-28.846l34.476-27.602a3.513 3.513 0 012.626-.76c.95.104 1.796.57 2.383 1.313l.933 1.157 3.886-3.109a3.449 3.449 0 012.47-.708 3.326 3.326 0 012.246 1.244l4.49 5.613 4.578-3.661-1.658-2.073a3.456 3.456 0 01.535-4.854l5.2-4.162c2.677-2.142 6.598-1.71 8.74.967l.448.553L94.637.779a.83.83 0 01.743-.173l3.54.864c.38.104.657.432.657.83zM60.713 80.959c0-.017-.017-.017-.034-.034 0-.018 0-.035-.018-.052L50.246 67.866l-14.32 11.452 21.54 26.911a3.864 3.864 0 002.574 1.417 3.764 3.764 0 002.815-.812l24.39-19.518a3.865 3.865 0 001.416-2.574 3.76 3.76 0 00-.812-2.815 3.864 3.864 0 00-2.574-1.417 3.76 3.76 0 00-2.815.812l-12.402 9.932a.856.856 0 01-1.21-.138zm-5.009-17.48l-4.093 3.282 9.897 12.385 5.13-4.111c.5-.415.794-1.02.777-1.658a2.097 2.097 0 00-.829-1.624zm11.4-11.33c.38-.312.622-.743.691-1.227a1.814 1.814 0 00-.397-1.347l-1.468-1.831-19.743-24.648a1.792 1.792 0 00-1.226-.674c-.07-.017-.139-.017-.208-.017a1.83 1.83 0 00-1.14.397L9.137 50.404C1.036 56.88-.277 68.73 6.2 76.83c6.477 8.1 18.343 9.414 26.427 2.936l1.503-1.209c.017-.017.017-.034.034-.052.017 0 .035 0 .052-.017l15.58-12.47c.017-.018.017-.035.034-.053.018-.017.035-.017.052-.034zm-1.243-17.792l-.035-.034c0-.017 0-.035-.017-.052l-5.044-6.287c-.017 0-.017 0-.034-.018 0 0 0-.017-.018-.034l-4.991-6.253a1.58 1.58 0 00-1.089-.604 1.617 1.617 0 00-1.209.345l-3.886 3.11L66.724 46l3.887-3.11c.708-.57.829-1.589.259-2.297zm5.371-5.475l-4.007-5.01-4.577 3.663 4.007 5.009zm11.711-1.555c1.935-1.537 2.246-4.37.708-6.304l-6.028-7.531a4.439 4.439 0 00-3.506-1.693 4.49 4.49 0 00-2.798.985l-5.2 4.163a1.717 1.717 0 00-.276 2.435l9.466 11.832c.587.76 1.693.88 2.435.276zm14.959-21.78L97.85 2.99l-2.47-.604-14.89 11.918 2.522 3.16z"/><path d="M43.7 31.887a.856.856 0 00-1.209-.138l-12.194 9.759a.856.856 0 00-.138 1.209.877.877 0 00.673.328c.19 0 .38-.07.536-.19l12.194-9.76a.872.872 0 00.138-1.208zm4.85 6.07a.856.856 0 00-1.209-.138l-12.194 9.759a.856.856 0 00-.138 1.209.877.877 0 00.673.328c.19 0 .38-.07.536-.19l12.194-9.76a.87.87 0 00.138-1.208zm4.85 6.06a.856.856 0 00-1.209-.138l-12.194 9.759a.856.856 0 00-.138 1.209.877.877 0 00.673.328c.19 0 .38-.07.536-.19l12.194-9.76a.87.87 0 00.138-1.208zm3.631 5.942l-12.194 9.759a.856.856 0 00-.138 1.209.877.877 0 00.673.328c.19 0 .38-.07.536-.19l12.194-9.76a.856.856 0 00.138-1.208.854.854 0 00-1.209-.138zM29.443 58.2a10.667 10.667 0 012.28 7.859 10.602 10.602 0 01-3.938 7.168 10.621 10.621 0 01-6.65 2.332c-3.144 0-6.27-1.382-8.377-4.025a10.69 10.69 0 01-2.263-7.842 10.565 10.565 0 013.938-7.168 10.56 10.56 0 017.86-2.263c2.832.329 5.371 1.71 7.15 3.939zM19.235 73.572l1.952-17.652h-.104a8.84 8.84 0 00-5.562 1.951 8.898 8.898 0 00-3.299 6.011 8.915 8.915 0 001.9 6.564c1.33 1.675 3.161 2.712 5.113 3.126zm8.826-14.284c-1.312-1.641-3.143-2.712-5.181-3.127l-1.952 17.636c2.02.034 4.076-.553 5.769-1.917a8.898 8.898 0 003.299-6.011 8.74 8.74 0 00-1.935-6.581z"/></svg>