<svg width="87" height="87" xmlns="http://www.w3.org/2000/svg"><path d="M29.368 83.023c-3.04 2.25-6.864 3.594-11.026 3.594-9.947 0-17.972-7.68-17.972-17.07V16.83c0-.14.018-.273.047-.402C.963 7.498 8.769.36 18.357.36c8.564 0 15.7 5.689 17.523 13.26l45.188-.017a5.393 5.393 0 015.394 5.376l.154 58.64a5.377 5.377 0 01-1.574 3.82 5.388 5.388 0 01-3.816 1.584zm-1.671-3.245c3.073-2.465 5.024-6.127 5.024-10.231 0-7.468-6.469-13.477-14.379-13.477-7.906 0-14.378 6.01-14.378 13.477 0 7.468 6.472 13.476 14.378 13.476 3.515 0 6.746-1.186 9.25-3.162.033-.029.069-.054.105-.083zm37.368-62.574V79.43h16.16c.479 0 .939-.19 1.273-.529a1.78 1.78 0 00.525-1.272l-.155-58.639a1.8 1.8 0 00-1.797-1.793zm-3.594 0l-14.375.007V79.43H61.47zM43.502 79.43V17.21l-7.173.004-.014 52.332c0 3.676-1.23 7.09-3.32 9.883zm-17.969-9.92a7.178 7.178 0 01-14.353 0 7.18 7.18 0 017.177-7.176 7.18 7.18 0 017.176 7.177zm-10.76 0a3.583 3.583 0 007.167 0 3.584 3.584 0 00-7.166 0zm17.962-10.18v-41.9c0-7.468-6.468-13.476-14.378-13.476-7.906 0-14.379 6.008-14.379 13.476l-.007 41.875c3.274-4.14 8.485-6.828 14.371-6.828 5.898 0 11.12 2.699 14.393 6.853z" fill="#333"/></svg>