<svg width="110" height="86" xmlns="http://www.w3.org/2000/svg"><path d="M107.516 82.581H2.504l1.7 1.7V61.08c0-4.53 1.517-9.017 4.327-12.574 3.08-3.874 7.43-6.412 12.257-7.363 1.676-.317 3.398-.317 5.097-.317H85.29c3.308 0 6.525.68 9.493 2.175 4.282 2.175 7.748 5.913 9.561 10.354 1.201 2.968 1.495 6.004 1.495 9.175v21.705c0 2.198 3.399 2.198 3.399 0v-23.2c0-4.78-1.45-9.515-4.169-13.435-4.6-6.661-12.121-10.195-20.119-10.195H30.62c-4.168 0-8.405-.25-12.46.838C7.987 40.962.918 50.568.85 60.99c-.045 7.748 0 15.497 0 23.222 0 .93.77 1.7 1.7 1.7h105.01c2.152.068 2.152-3.33-.045-3.33z"/><path d="M2.94 70.167c7.002-1.608 14.229-4.032 21.479-2.854 4.191.68 8.134 2.016 12.46 2.152 4.283.113 8.338-.997 12.485-1.903 3.42-.77 7.046-.77 10.512-.159 1.609.272 3.195.703 4.78 1.065 5.234 1.201 10.354 1.246 15.61.046 1.519-.34 3.014-.725 4.532-1.043 3.444-.702 7.069-.657 10.512 0 2.878.544 5.71 1.314 8.564 1.949 1.088.249 2.153.498 3.24.747 2.13.499 3.036-2.786.907-3.285-7.047-1.631-14.251-3.965-21.57-3.104-4.19.499-8.178 1.994-12.415 2.243-4.282.25-8.292-.838-12.415-1.744-3.467-.77-7.07-.884-10.604-.43-1.925.249-3.806.724-5.709 1.155-2.22.52-4.418.951-6.706 1.042-2.674.113-5.28-.227-7.885-.838-5.052-1.156-9.946-2.085-15.157-1.314-3.171.453-6.298 1.336-9.402 2.039-1.36.317-2.719.634-4.078.929-2.175.543-1.269 3.806.86 3.307zM8.033 48.66V17.17c0-8.565 8.383-13.753 16.222-13.753H76.75c3.148 0 6.297-.022 9.447 0 4.939.046 10.127 2.175 13.186 6.163 1.88 2.447 2.583 5.233 2.583 8.27v30.81c0 2.197 3.398 2.197 3.398 0V17.168c0-10.15-9.38-16.765-18.827-17.128-3.195-.136-6.412 0-9.607 0H24.277c-9.38 0-18.85 6.14-19.62 16.064-.136 1.63-.023 3.307-.023 4.939v27.641c0 2.174 3.399 2.174 3.399-.023z"/><path d="M49.083 37.476H25.158c-.77 0-1.382-.318-1.382-1.178V24.29c0-.997.906-1.065 1.654-1.065h22.52c.861 0 2.107-.181 2.175 1.065.068 1.246 0 2.515 0 3.76v6.367c0 .929.408 2.968-1.042 3.059-2.175.113-2.198 3.511 0 3.398 2.492-.136 4.463-1.994 4.463-4.531V24.29c0-2.425-2.016-4.486-4.463-4.486H27.628c-2.696 0-5.71-.227-6.933 2.854-.43 1.088-.295 2.311-.295 3.444V35.8c0 1.858.59 3.399 2.198 4.463 1.382.907 3.602.612 5.188.612h21.297c2.198 0 2.198-3.398 0-3.398zm36.07 0H61.228c-.77 0-1.382-.318-1.382-1.178V24.29c0-.997.906-1.065 1.654-1.065h22.52c.861 0 2.107-.181 2.175 1.065.068 1.246 0 2.515 0 3.76v6.367c.023.929.408 2.968-1.042 3.059-2.175.113-2.197 3.511 0 3.398 2.492-.136 4.464-1.994 4.464-4.531V24.29c0-2.425-2.017-4.486-4.464-4.486H63.698c-2.696 0-5.71-.227-6.933 2.854-.43 1.088-.295 2.311-.295 3.444V35.8c0 1.858.59 3.399 2.198 4.463 1.382.907 3.602.612 5.188.612h21.297c2.198 0 2.198-3.398 0-3.398z"/></svg>