<svg width="98" height="100" xmlns="http://www.w3.org/2000/svg"><path d="M11.67 88.756c.06-1.747 1.868-3.351 2.965-4.773 1.625-2.113 1.34-4.611 1.34-7.11l-1.523 1.524h4.387l-1.523-1.524c0 2.113-.244 4.327.751 6.257.407.792 1.118 1.523 1.666 2.234.508.67 1.219 1.544 1.564 2.092.386.63.346 1.381.346 2.072v8.084l1.523-1.523h-13.02c-1.97 0-1.97 3.047 0 3.047h13.02c.833 0 1.523-.69 1.523-1.524v-4.834c0-1.767.163-3.616-.162-5.362-.224-1.178-.995-2.093-1.686-3.007-.63-.812-1.26-1.645-1.91-2.457-.893-1.158-.548-3.514-.548-5.079 0-.832-.69-1.523-1.523-1.523h-4.388c-.833 0-1.523.69-1.523 1.523v2.661c0 .975-.122 1.87-.63 2.52-1.584 2.03-3.575 3.98-3.677 6.702-.101 1.97 2.946 1.97 3.027 0zm51.565-22.893v31.749l1.524-1.524H33.213l1.524 1.524V65.863l-1.524 1.524H64.76c1.97 0 1.97-3.047 0-3.047H33.213c-.832 0-1.523.69-1.523 1.523v31.749c0 .833.69 1.523 1.523 1.523H64.76c.833 0 1.523-.69 1.523-1.523V65.863c0-1.95-3.047-1.95-3.047 0z"/><path d="M96.329 96.088H64.783l1.524 1.524V65.863l-1.524 1.524H96.33l-1.524-1.524v31.749c0 1.97 3.047 1.97 3.047 0V65.863c0-.832-.69-1.523-1.523-1.523H64.783c-.832 0-1.523.69-1.523 1.523v31.749c0 .833.69 1.523 1.523 1.523H96.33c1.95 0 1.95-3.047 0-3.047zM31.695 34.133v31.749l1.524-1.524H1.673l1.524 1.524V34.133l-1.524 1.524H33.22c1.97 0 1.97-3.047 0-3.047H1.673c-.832 0-1.523.69-1.523 1.523v31.749c0 .833.69 1.523 1.523 1.523H33.22c.833 0 1.523-.69 1.523-1.523V34.133c0-1.97-3.047-1.97-3.047 0z"/><path d="M33.239 32.608H1.693l1.524 1.524V2.384L1.693 3.907H33.24l-1.524-1.524v31.749c0 1.97 3.047 1.97 3.047 0V2.384c0-.832-.69-1.523-1.523-1.523H1.693A1.533 1.533 0 00.17 2.383v31.749c0 .833.69 1.523 1.523 1.523H33.24c1.95 0 1.95-3.047 0-3.047z"/><path d="M64.779 64.338H33.233l1.524 1.524V34.113l-1.524 1.524H64.78l-1.524-1.524v31.749c0 1.97 3.047 1.97 3.047 0V34.113c0-.832-.69-1.523-1.523-1.523H33.233c-.832 0-1.523.69-1.523 1.523v31.749c0 .833.69 1.523 1.523 1.523H64.78c1.95 0 1.95-3.047 0-3.047zm-44.134-6.495v8.044l1.524-1.523H1.673l1.524 1.523v-8.044l-1.524 1.524H22.17c1.97 0 1.97-3.047 0-3.047H1.673c-.832 0-1.523.69-1.523 1.523v8.044c0 .833.69 1.524 1.523 1.524H22.17c.833 0 1.523-.691 1.523-1.524v-8.044c0-1.97-3.047-1.97-3.047 0z"/><path d="M16.644 56.314H1.674l1.523 1.523v-8.044l-1.524 1.524h14.97l-1.523-1.524v8.044c0 1.97 3.047 1.97 3.047 0v-8.044c0-.832-.69-1.523-1.523-1.523H1.674c-.833 0-1.524.69-1.524 1.523v8.044c0 .833.69 1.524 1.523 1.524h14.97c1.971 0 1.971-3.047 0-3.047zm6.514 39.776h-13.02c-1.97 0-1.97 3.047 0 3.047h13.02c1.97 0 1.97-3.047 0-3.047z"/><path d="M31.695 65.863v31.749l1.524-1.524H1.673l1.524 1.524V65.863l-1.524 1.524H33.22c1.97 0 1.97-3.047 0-3.047H1.673c-.832 0-1.523.69-1.523 1.523v31.749c0 .833.69 1.523 1.523 1.523H33.22c.833 0 1.523-.69 1.523-1.523V65.863c0-1.95-3.047-1.95-3.047 0z"/><path d="M8.62 88.752v8.857c0 1.97 3.047 1.97 3.047 0v-8.856c0-1.95-3.047-1.95-3.047 0zM56.7 64.34H41.284l1.524 1.522V49.023l-1.524 1.524h15.418l-1.524-1.524v16.84c0 1.97 3.047 1.97 3.047 0v-16.84c0-.832-.69-1.523-1.523-1.523H41.283c-.832 0-1.523.69-1.523 1.523v16.84c0 .832.69 1.523 1.523 1.523h15.418c1.97 0 1.97-3.047 0-3.047z"/><path d="M47.48 49.048v16.839c0 1.97 3.047 1.97 3.047 0v-16.84c0-1.97-3.047-1.97-3.047 0z"/><path d="M41.298 58.977h15.417c1.97 0 1.97-3.047 0-3.047H41.298c-1.97 0-1.97 3.047 0 3.047zm11.01-11.457h-3.311l1.523 1.523v-2.356c0-.813-.142-1.686.833-1.95.772-.203 1.707.04 1.93.833.203.772-.04 1.889-.975 1.95-1.95.101-1.97 3.148 0 3.047 2.56-.143 4.022-2.072 4.022-4.53 0-2.438-1.666-4.347-4.185-4.347-2.295 0-4.53 1.178-4.671 3.737-.061 1.199-.02 2.418-.02 3.616 0 .833.69 1.524 1.523 1.524h3.31c1.991 0 1.991-3.047.021-3.047z"/><path d="M49.023 47.526h-3.19c-1.076 0-1.543-1.605-.893-2.397.65-.792 2.56-.508 2.56.65v3.27c0 1.97 3.046 1.97 3.046 0 0-1.584.325-3.676-.427-5.139-1.36-2.62-5.017-2.864-7.15-1.137-1.076.893-1.259 2.315-1.259 3.615 0 1.544.71 2.803 1.99 3.636 1.423.935 3.738.549 5.343.549 1.95 0 1.95-3.047-.02-3.047zm47.307 48.56H75.753l1.524 1.523V74.493l-1.524 1.524H96.33l-1.523-1.524V97.61c0 1.97 3.046 1.97 3.046 0V74.493c0-.832-.69-1.523-1.523-1.523H75.753c-.832 0-1.523.69-1.523 1.523V97.61c0 .833.69 1.523 1.523 1.523H96.33c1.95 0 1.95-3.046 0-3.046z"/><path d="M84.51 74.518v23.115c0 1.97 3.047 1.97 3.047 0V74.518c0-1.97-3.047-1.97-3.047 0zm-8.758 21.566H64.783l1.524 1.524V81.743l-1.524 1.524h10.97l-1.524-1.524v15.865c0 1.97 3.047 1.97 3.047 0V81.743c0-.832-.691-1.523-1.524-1.523H64.783c-.832 0-1.523.69-1.523 1.523v15.865c0 .832.69 1.523 1.523 1.523h10.97c1.97 0 1.97-3.047 0-3.047z"/></svg>