<svg width="61" height="56" xmlns="http://www.w3.org/2000/svg"><path d="M60.575 22.672a1 1 0 01.425.818V55a1 1 0 01-1 1H1a1 1 0 01-1-1V23.49a1 1 0 01.425-.818l11.35-7.973a1 1 0 00.425-.819V2.5c0-.663.269-1.298.745-1.767A2.566 2.566 0 0114.742 0h31.516c.674 0 1.32.264 1.797.733.476.469.744 1.104.745 1.767v11.38a1 1 0 00.425.819zm-10.2-2.25a1 1 0 00-1.575.818v5.423a1 1 0 001.54.841l4.03-2.591a1 1 0 00.035-1.66zm-34.108 9.564a1 1 0 00.487.858l7.885 4.709a1 1 0 00.942.045l5.524-2.623a1 1 0 01.883.012l4.969 2.534a1 1 0 00.995-.05l6.322-4.065a1 1 0 00.46-.842V5a1 1 0 00-1-1H17.266a1 1 0 00-1 1zM4.637 49.984a1 1 0 00-.57.903V51a1 1 0 001 1h50.866a1 1 0 001-1v-.172a1 1 0 00-.545-.89L31.923 37.46a1 1 0 00-.884-.013zm-.57-5.752a1 1 0 001.429.903l13.547-6.432a1 1 0 00.084-1.762L5.579 28.85a1 1 0 00-1.512.858zm51.412.736a1 1 0 001.454-.89V29.876a1 1 0 00-1.54-.842l-12.316 7.922a1 1 0 00.086 1.732zM6.684 23.191a1 1 0 00.062 1.676l3.941 2.354a1 1 0 001.513-.858V21.24a1 1 0 00-1.575-.819z"/></svg>