<svg width="58" height="57" xmlns="http://www.w3.org/2000/svg"><path d="M12.24 27.93v16.315h16.77l-3.497-3.403h-9.775v-9.51z"/><path d="M57.483 53.24l-5.02-4.95v4.457H3.499v-7.06h3.497v-2.722H3.498V31.652h3.497V28.93H3.498V18.043h3.497V15.32H3.498V5.81l27.875 26.964v-4.797L2.99.503a1.764 1.764 0 00-.897-.47A1.794 1.794 0 001.078.13C.758.26.484.48.292.76A1.668 1.668 0 000 1.712v52.737c0 .452.184.884.512 1.203.328.32.773.499 1.237.499H56.24c.347.002.688-.097.977-.284.29-.187.515-.453.648-.765.134-.312.168-.656.1-.987a1.687 1.687 0 00-.483-.873z"/><path d="M38.478 49.343a3.548 3.548 0 01-2.474-.996 3.356 3.356 0 01-1.024-2.406v-32.8l3.812-7.093a3.441 3.441 0 011.277-1.335 3.57 3.57 0 011.801-.503 3.574 3.574 0 011.777.444c.54.3.99.733 1.301 1.258l4.022 7.196V45.94c0 .902-.368 1.768-1.024 2.406a3.548 3.548 0 01-2.473.996zm0-10.207h6.995v-25.16L41.87 7.544l-3.392 6.413zm0 6.924h6.995v-4.15h-6.995z"/></svg>