<svg width="42" height="56" xmlns="http://www.w3.org/2000/svg"><path d="M38.5 0A3.5 3.5 0 0142 3.5v49a3.5 3.5 0 01-3.5 3.5h-35A3.5 3.5 0 010 52.5v-49A3.5 3.5 0 013.5 0zm0 52.5v-49h-35v49z"/><path d="M10.5 10.5h23.922V7H8.75A1.75 1.75 0 007 8.75v8.172h3.5zm0 14H7V28h7v-7h-3.5zm21 0H28V28h7v-7h-3.5zm-10.5 0h-3.5V28h7v-7H21zM10.5 35H7v3.5h7v-7h-3.5zm21 0H28v3.5h7v-7h-3.5zM21 35h-3.5v3.5h7v-7H21zM10.5 45.5H7V49h7v-7h-3.5zm21 0H28V49h7v-7h-3.5zm-10.5 0h-3.5V49h7v-7H21z"/><path d="M18 29v-1h7v1zm0-3v-1h3v1zm6.707-5l.147.146-.708.708.146.146H16.5a.5.5 0 00-.5.5v12a.5.5 0 00.5.5h10a.5.5 0 00.5-.5v-9.792l.146.146.708-.708.146.147V34.5a1.5 1.5 0 01-1.5 1.5h-10a1.5 1.5 0 01-1.5-1.5v-12a1.5 1.5 0 011.5-1.5zm2.793 3.5H27v.208L24.292 22h.208v-.5zm-5.862 8.185l-.139-.186-.218-.435a1.643 1.643 0 00-.012-.008l-.032.016.027-.019.005.003.007-.003.005.01c.121.074.243.169.365.291l.397-.397.311-.31c.057.057.111.117.161.18l-.177.138-.218.17-.395.306h-.001.001c.048.061.06.097.062.11a.221.221 0 01-.053.063.997.997 0 01-.096.07zm1.143-.017c-.035.299-.2.527-.374.686-.335.304-.827.468-1.207.526a1.789 1.789 0 01-.593.002.829.829 0 01-.33-.139.61.61 0 01-.255-.468.705.705 0 01.14-.438c.074-.1.162-.19.26-.267.187-.152.458-.317.815-.498l-.037.028.3.399.103.208.121.24.04-.02.036-.027a2.6 2.6 0 01.518-.307 1.78 1.78 0 01.465-.133.986.986 0 01-.002.208zm-1.178.038L21.5 32.5l.138.185a.997.997 0 01-.035.021zm-2.129-.048h.001zm1.327.243c-.006-.002-.007-.001-.001 0zm.178.513l-.001.001zm.809-.86c0 .005 0 .005 0 0zm0-.005c0-.003.001-.003 0 0z"/></svg>