<svg width="56" height="56" xmlns="http://www.w3.org/2000/svg"><defs><clipPath id="a"><path d="M.507 55.493V.507h54.986v54.986zM53.31 18.357a1.683 1.683 0 00-2.38 0l-9.427 9.428V2.7c0-.932-.755-1.687-1.687-1.687H14.51c-.573 0-1.141-.1-1.477.235L1.25 13.033c-.336.336-.235.851-.235 1.477v38.8c0 .932.755 1.687 1.687 1.687h37.114c.932 0 1.687-.755 1.687-1.687V34.922l12.996-12.996a1.683 1.683 0 000-2.38zM12.823 3.89v8.933H3.89zM2.701 53.31v-38.8h10.966a.844.844 0 00.843-.843V2.7h25.305v26.77l-7.128 7.13a.818.818 0 00-.464-.157h-21.93a.844.844 0 000 1.687h20.866l-5.069 5.068a.777.777 0 00-.662.598l-.708 3.095a.846.846 0 00-.064.665c.024.081.071.15.115.219.007.012.011.023.018.033a.92.92 0 00.134.152.952.952 0 00.152.134c.01.006.023.011.034.018.07.044.138.09.219.116a.84.84 0 00.664-.065l3.095-.708a.78.78 0 00.607-.723L39.815 36.61v16.7zm25.516-7.483l-1.508.345.36-1.576 25.049-25.05 1.189 1.19zm4.005-24.57a.844.844 0 000-1.686h-21.93a.844.844 0 000 1.687zm0 8.436a.844.844 0 000-1.687h-21.93a.844.844 0 000 1.687z" fill="#fff"/></clipPath></defs><path d="M54.498 19.547a1.683 1.683 0 010 2.379L41.502 34.922V53.31c0 .932-.755 1.687-1.687 1.687H2.7a1.687 1.687 0 01-1.687-1.687v-38.8c0-.626-.1-1.141.235-1.477L13.033 1.25c.336-.336.904-.235 1.477-.235h25.305c.932 0 1.687.755 1.687 1.687v25.084l9.427-9.428a1.683 1.683 0 012.38 0zM3.89 12.823h8.933V3.89zM39.815 53.31v-16.7L29.694 46.73a.78.78 0 01-.607.723l-3.095.708a.84.84 0 01-.664.065c-.081-.026-.149-.072-.219-.116l-.034-.019a.952.952 0 01-.152-.133.92.92 0 01-.134-.152c-.007-.01-.011-.022-.018-.033-.044-.07-.091-.138-.116-.219a.846.846 0 01.065-.665l.708-3.095a.777.777 0 01.662-.598l5.069-5.069H10.293a.844.844 0 010-1.687h21.93c.176 0 .33.066.464.158l7.128-7.127V2.702H14.51v10.965a.844.844 0 01-.843.843H2.7v38.8zm13.492-32.574l-1.19-1.19-25.048 25.05-.36 1.576 1.508-.345zm-43.015.522a.844.844 0 010-1.687h21.93a.844.844 0 010 1.687zm0 8.435a.844.844 0 010-1.687h21.93a.844.844 0 010 1.687z"/><path d="M54.498 19.547a1.683 1.683 0 010 2.379L41.502 34.922V53.31c0 .932-.755 1.687-1.687 1.687H2.7a1.687 1.687 0 01-1.687-1.687v-38.8c0-.626-.1-1.141.235-1.477L13.033 1.25c.336-.336.904-.235 1.477-.235h25.305c.932 0 1.687.755 1.687 1.687v25.084l9.427-9.428a1.683 1.683 0 012.38 0zM3.89 12.823h8.933V3.89zM39.815 53.31v-16.7L29.694 46.73a.78.78 0 01-.607.723l-3.095.708a.84.84 0 01-.664.065c-.081-.026-.149-.072-.219-.116l-.034-.019a.952.952 0 01-.152-.133.92.92 0 01-.134-.152c-.007-.01-.011-.022-.018-.033-.044-.07-.091-.138-.116-.219a.846.846 0 01.065-.665l.708-3.095a.777.777 0 01.662-.598l5.069-5.069H10.293a.844.844 0 010-1.687h21.93c.176 0 .33.066.464.158l7.128-7.127V2.702H14.51v10.965a.844.844 0 01-.843.843H2.7v38.8zm13.492-32.574l-1.19-1.19-25.048 25.05-.36 1.576 1.508-.345zm-43.015.522a.844.844 0 010-1.687h21.93a.844.844 0 010 1.687zm0 8.435a.844.844 0 010-1.687h21.93a.844.844 0 010 1.687z" fill="none" stroke="#000" stroke-miterlimit="20" clip-path="url(&quot;#a&quot;)"/></svg>