<svg width="42" height="56" xmlns="http://www.w3.org/2000/svg"><defs><clipPath id="a"><path d="M.5 55.5V.5h41v55zm40.243-34.14V6.245h-2.407V4.131C38.336 2.405 36.984 1 35.322 1H4.015C2.352 1 1 2.405 1 4.131v5.705c0 1.727 1.352 3.131 3.015 3.131h4.592c.263 1.295 1.371 2.27 2.694 2.27 1.324 0 2.432-.975 2.695-2.27h21.326c1.662 0 3.014-1.404 3.014-3.131V7.721h.987v12.403l-19.311 3.57v4.332h-3.325v22.401c0 2.312 1.81 4.192 4.035 4.192s4.035-1.88 4.035-4.192V28.026h-3.325V24.93zM36.916 6.78l-4.536 4.712h-4.634l5.43-5.641-1.004-1.043-6.434 6.684h-4.649l.762-.792-1.004-1.043-1.766 1.835H14.49l8.682-9.018h4.59l-5.909 6.139 1.004 1.042 6.914-7.181h4.649l-1.154 1.198 1.004 1.043 1.907-1.98c.443.294.739.809.739 1.395v2.65zm-22.86-1.66l2.546-2.646h4.562l-7.109 7.384zm0-2.086v-.56h.539zM2.434 10.05c.104.02.211.032.321.032.969 0 1.756-.819 1.756-1.825V7.98c0-.299.234-.541.521-.541a.53.53 0 01.52.54V9.15c0 1.264.99 2.292 2.208 2.292.094 0 .185.019.269.05H4.015c-.81 0-1.479-.63-1.58-1.442zm8.866 3.712c-.735 0-1.333-.621-1.333-1.386v-.116c0-1.264-.99-2.292-2.207-2.292-.434 0-.787-.367-.787-.818V7.979c0-1.112-.87-2.016-1.94-2.016-1.07 0-1.941.904-1.941 2.016v.279a.344.344 0 01-.337.349.344.344 0 01-.336-.35V4.133c0-.914.715-1.657 1.595-1.657h8.62v9.902c0 .764-.598 1.385-1.334 1.385zm23.087-2.27l2.528-2.625v.969c0 .914-.715 1.657-1.594 1.657zm-16.28 38.937V31.752h5.23v18.676c0 1.498-1.173 2.716-2.615 2.716-1.442 0-2.616-1.218-2.616-2.716zm5.23-20.15h-5.23V29.5h5.23z" fill="#fff"/></clipPath></defs><path d="M21.432 24.93v3.096h3.325v22.401c0 2.312-1.81 4.192-4.035 4.192s-4.035-1.88-4.035-4.192V28.026h3.325v-4.332l19.31-3.57V7.72h-.986v2.115c0 1.727-1.352 3.131-3.014 3.131H13.996c-.263 1.295-1.371 2.27-2.695 2.27-1.323 0-2.43-.975-2.694-2.27H4.015C2.352 12.967 1 11.563 1 9.836V4.131C1 2.405 2.352 1 4.015 1h31.307c1.662 0 3.014 1.405 3.014 3.131v2.115h2.407V21.36zM36.916 6.78V4.13c0-.586-.296-1.101-.74-1.396l-1.906 1.98-1.004-1.042 1.154-1.198h-4.65l-6.913 7.181-1.004-1.042 5.91-6.14h-4.591l-8.682 9.019h4.591l1.766-1.835 1.004 1.043-.762.792h4.649l6.435-6.684 1.003 1.043-5.43 5.64h4.634l4.536-4.71zm-22.86 3.08l7.108-7.384h-4.562L14.055 5.12zm.539-7.384h-.54v.56zm-10.58 9.018H8.03a.756.756 0 00-.27-.05c-1.216 0-2.206-1.03-2.206-2.293V7.979a.532.532 0 00-.521-.541.532.532 0 00-.52.54v.28c0 1.005-.788 1.824-1.757 1.824-.11 0-.217-.012-.321-.032.101.812.77 1.443 1.58 1.443zm8.62.883V2.476h-8.62c-.88 0-1.595.743-1.595 1.657v4.126c0 .192.15.349.336.349a.344.344 0 00.337-.35V7.98c0-1.112.87-2.016 1.94-2.016 1.07 0 1.94.904 1.94 2.016v1.17c0 .45.354.818.788.818 1.217 0 2.207 1.028 2.207 2.292v.117c0 .764.598 1.385 1.333 1.385.736 0 1.334-.621 1.334-1.385zm22.687-.883c.879 0 1.594-.743 1.594-1.657v-.969l-2.528 2.626zm-14.6 41.651c1.442 0 2.615-1.218 2.615-2.716V31.752h-5.23v18.676c0 1.498 1.173 2.716 2.615 2.716zm2.615-23.643h-5.23v.776h5.23z"/><path d="M21.432 24.93v3.096h3.325v22.401c0 2.312-1.81 4.192-4.035 4.192s-4.035-1.88-4.035-4.192V28.026h3.325v-4.332l19.31-3.57V7.72h-.986v2.115c0 1.727-1.352 3.131-3.014 3.131H13.996c-.263 1.295-1.371 2.27-2.695 2.27-1.323 0-2.43-.975-2.694-2.27H4.015C2.352 12.967 1 11.563 1 9.836V4.131C1 2.405 2.352 1 4.015 1h31.307c1.662 0 3.014 1.405 3.014 3.131v2.115h2.407V21.36zM36.916 6.78V4.13c0-.586-.296-1.101-.74-1.396l-1.906 1.98-1.004-1.042 1.154-1.198h-4.65l-6.913 7.181-1.004-1.042 5.91-6.14h-4.591l-8.682 9.019h4.591l1.766-1.835 1.004 1.043-.762.792h4.649l6.435-6.684 1.003 1.043-5.43 5.64h4.634l4.536-4.71zm-22.86 3.08l7.108-7.384h-4.562L14.055 5.12zm.539-7.384h-.54v.56zm-10.58 9.018H8.03a.756.756 0 00-.27-.05c-1.216 0-2.206-1.03-2.206-2.293V7.979a.532.532 0 00-.521-.541.532.532 0 00-.52.54v.28c0 1.005-.788 1.824-1.757 1.824-.11 0-.217-.012-.321-.032.101.812.77 1.443 1.58 1.443zm8.62.883V2.476h-8.62c-.88 0-1.595.743-1.595 1.657v4.126c0 .192.15.349.336.349a.344.344 0 00.337-.35V7.98c0-1.112.87-2.016 1.94-2.016 1.07 0 1.94.904 1.94 2.016v1.17c0 .45.354.818.788.818 1.217 0 2.207 1.028 2.207 2.292v.117c0 .764.598 1.385 1.333 1.385.736 0 1.334-.621 1.334-1.385zm22.687-.883c.879 0 1.594-.743 1.594-1.657v-.969l-2.528 2.626zm-14.6 41.651c1.442 0 2.615-1.218 2.615-2.716V31.752h-5.23v18.676c0 1.498 1.173 2.716 2.615 2.716zm2.615-23.643h-5.23v.776h5.23z" fill="none" stroke="#000" stroke-miterlimit="20" clip-path="url(&quot;#a&quot;)"/></svg>