<svg width="59" height="59" xmlns="http://www.w3.org/2000/svg"><defs><clipPath id="a"><path d="M-.5 59.5v-60h59v60zm57.537-28.86a2 2 0 000-2.829l-5.353-5.352a2 2 0 01-.586-1.415V7.026a2 2 0 00-2-2h-4.842a2 2 0 00-2 2v1.176c0 1.782-2.154 2.674-3.414 1.414L30.64 1.414a2 2 0 00-2.829 0L1.414 27.811a2 2 0 000 2.829l1.125 1.125a1.542 1.542 0 002.181 0c.972-.971 2.633-.283 2.633 1.09V56.08a2 2 0 002 2h39.745a2 2 0 002-2V32.856c0-1.374 1.661-2.062 2.633-1.09a1.542 1.542 0 002.18 0zM3.118 28.714L27.811 4.02a2 2 0 012.829 0l10.064 10.064c1.26 1.26 3.414.367 3.414-1.414V8.888a2 2 0 012-2h1.119a2 2 0 012 2v12.9a2 2 0 00.586 1.415l5.51 5.51a.724.724 0 01-1.024 1.025L30.64 6.068a2 2 0 00-2.828 0l-23.67 23.67a.724.724 0 11-1.023-1.024zm46.146-1.35a.027.027 0 00-.027.027v26.827a2 2 0 01-2 2H11.214a2 2 0 01-2-2V27.39a.027.027 0 00-.027-.027.027.027 0 01-.02-.046L27.812 8.674a2 2 0 012.829 0l18.643 18.644a.027.027 0 01-.019.046z" fill="#fff"/></clipPath></defs><path d="M55.912 31.765a1.542 1.542 0 01-2.181 0c-.972-.971-2.633-.283-2.633 1.09V56.08a2 2 0 01-2 2H9.353a2 2 0 01-2-2V32.856c0-1.374-1.661-2.062-2.633-1.09a1.542 1.542 0 01-2.18 0L1.413 30.64a2 2 0 010-2.829L27.811 1.414a2 2 0 012.829 0l8.202 8.202c1.26 1.26 3.414.368 3.414-1.414V7.026a2 2 0 012-2h4.842a2 2 0 012 2v14.018a2 2 0 00.586 1.415l5.353 5.352a2 2 0 010 2.829zM3.118 29.738a.724.724 0 001.024 0l23.67-23.67a2 2 0 012.828 0l23.67 23.67a.724.724 0 001.023-1.024l-5.51-5.51a2 2 0 01-.586-1.415V8.888a2 2 0 00-2-2h-1.12a2 2 0 00-2 2v3.782c0 1.781-2.154 2.674-3.413 1.414L30.64 4.02a2 2 0 00-2.829 0L3.118 28.714a.724.724 0 000 1.024zm46.165-2.42L30.64 8.674a2 2 0 00-2.829 0L9.168 27.318a.027.027 0 00.02.046c.014 0 .026.012.026.027v26.827a2 2 0 002 2h36.023a2 2 0 002-2V27.39c0-.015.012-.027.027-.027.024 0 .036-.03.02-.046z"/><path d="M55.912 31.765a1.542 1.542 0 01-2.181 0c-.972-.971-2.633-.283-2.633 1.09V56.08a2 2 0 01-2 2H9.353a2 2 0 01-2-2V32.856c0-1.374-1.661-2.062-2.633-1.09a1.542 1.542 0 01-2.18 0L1.413 30.64a2 2 0 010-2.829L27.811 1.414a2 2 0 012.829 0l8.202 8.202c1.26 1.26 3.414.368 3.414-1.414V7.026a2 2 0 012-2h4.842a2 2 0 012 2v14.018a2 2 0 00.586 1.415l5.353 5.352a2 2 0 010 2.829zM3.118 29.738a.724.724 0 001.024 0l23.67-23.67a2 2 0 012.828 0l23.67 23.67a.724.724 0 001.023-1.024l-5.51-5.51a2 2 0 01-.586-1.415V8.888a2 2 0 00-2-2h-1.12a2 2 0 00-2 2v3.782c0 1.781-2.154 2.674-3.413 1.414L30.64 4.02a2 2 0 00-2.829 0L3.118 28.714a.724.724 0 000 1.024zm46.165-2.42L30.64 8.674a2 2 0 00-2.829 0L9.168 27.318a.027.027 0 00.02.046c.014 0 .026.012.026.027v26.827a2 2 0 002 2h36.023a2 2 0 002-2V27.39c0-.015.012-.027.027-.027.024 0 .036-.03.02-.046z" fill="none" stroke="#000" stroke-miterlimit="20" clip-path="url(&quot;#a&quot;)"/></svg>