<svg width="53" height="56" xmlns="http://www.w3.org/2000/svg"><path d="M47.42 0A5.585 5.585 0 0153 5.579V53a2.79 2.79 0 01-2.79 2.79H5.578A2.79 2.79 0 012.788 53V39.053a2.79 2.79 0 01-1.97-4.763l13.13-13.13V5.58A5.585 5.585 0 0119.526 0zM25.106 34.629l-8.369-8.369-8.368 8.369V50.21h16.737zM47.42 5.579H19.526v15.582l13.13 13.13a2.785 2.785 0 01-1.972 4.762V50.21H47.42z"/><path d="M25.108 11.16h5.579v5.579h-5.579zm11.158 0h5.579v5.579h-5.579zm0 11.244h5.579v5.493h-5.579zm0 11.072h5.579v5.579h-5.579zm-22.316 2.79h5.579v5.578H13.95z"/></svg>