<svg width="49" height="55" xmlns="http://www.w3.org/2000/svg"><defs><clipPath id="a"><path d="M.5 54.5V.5h48v54zm45.967-25.601A8.802 8.802 0 0048 23.902c0-2.888-1.475-5.621-3.848-7.145a3.718 3.718 0 00-2.015-.598H28.048l.353-7.904c.082-1.91-.535-3.724-1.733-5.107a6.292 6.292 0 00-2.085-1.593A5.8 5.8 0 0022.09 1c-3.055 0-5.757 2.251-6.568 5.473l-5.047 20.001H2.88c-1.04 0-1.88.92-1.88 2.058v23.41C1 53.08 1.84 54 2.88 54h35.326c.54 0 1.07-.116 1.557-.347 2.797-1.306 4.6-4.296 4.6-7.615 0-.81-.105-1.608-.317-2.38.987-1.427 1.533-3.176 1.533-4.996 0-.81-.105-1.608-.317-2.38a8.801 8.801 0 001.534-4.997 9.555 9.555 0 00-.33-2.386zM5.23 49.369V31.106h4.759V49.37zm36.102-21.48l.816 1.634a3.89 3.89 0 01.406 1.755c0 1.062-.423 2.071-1.152 2.766l-1.286 1.222.816 1.633a3.88 3.88 0 01.406 1.756c0 1.061-.423 2.07-1.152 2.765L38.9 42.643l.816 1.634c.27.538.409 1.142.406 1.756 0 1.44-.776 2.74-1.974 3.331h-24.4V30.9l5.846-23.185a2.86 2.86 0 01.922-1.493 2.45 2.45 0 011.558-.584c.446 0 .887.141 1.24.43a2.37 2.37 0 01.857 1.962l-.564 12.76h18.471c1.046.701 1.692 1.884 1.692 3.113a3.84 3.84 0 01-1.152 2.765z" fill="#fff"/></clipPath></defs><path d="M46.796 31.285c0 1.82-.547 3.57-1.534 4.997.212.772.318 1.57.318 2.38 0 1.82-.547 3.569-1.534 4.997a8.96 8.96 0 01.317 2.38c0 3.318-1.803 6.308-4.6 7.614a3.616 3.616 0 01-1.557.347H2.88C1.84 54 1 53.08 1 51.942v-23.41c0-1.138.84-2.058 1.88-2.058h7.596l5.047-20.001C16.333 3.251 19.036 1 22.091 1a5.8 5.8 0 012.492.555c.787.37 1.497.912 2.085 1.593 1.198 1.383 1.815 3.196 1.733 5.107l-.352 7.903h14.088c.708 0 1.404.206 2.015.599C46.525 18.28 48 21.014 48 23.902c0 1.82-.546 3.57-1.533 4.997.211.772.317 1.575.329 2.386zM9.989 49.37V31.105H5.23V49.37zm32.63-22.703a3.84 3.84 0 001.151-2.765c0-1.229-.646-2.412-1.692-3.113H23.607l.564-12.76a2.37 2.37 0 00-.858-1.961 1.944 1.944 0 00-1.24-.431 2.45 2.45 0 00-1.557.584 2.86 2.86 0 00-.922 1.493L13.75 30.9v18.464h24.399c1.198-.592 1.974-1.89 1.974-3.331a3.889 3.889 0 00-.406-1.756l-.816-1.634 1.286-1.222c.729-.694 1.152-1.704 1.152-2.765a3.888 3.888 0 00-.406-1.756l-.816-1.633 1.286-1.222c.729-.695 1.152-1.704 1.152-2.766a3.89 3.89 0 00-.405-1.755l-.817-1.634z"/><path d="M46.796 31.285c0 1.82-.547 3.57-1.534 4.997.212.772.318 1.57.318 2.38 0 1.82-.547 3.569-1.534 4.997a8.96 8.96 0 01.317 2.38c0 3.318-1.803 6.308-4.6 7.614a3.616 3.616 0 01-1.557.347H2.88C1.84 54 1 53.08 1 51.942v-23.41c0-1.138.84-2.058 1.88-2.058h7.596l5.047-20.001C16.333 3.251 19.036 1 22.091 1a5.8 5.8 0 012.492.555c.787.37 1.497.912 2.085 1.593 1.198 1.383 1.815 3.196 1.733 5.107l-.352 7.903h14.088c.708 0 1.404.206 2.015.599C46.525 18.28 48 21.014 48 23.902c0 1.82-.546 3.57-1.533 4.997.211.772.317 1.575.329 2.386zM9.989 49.37V31.105H5.23V49.37zm32.63-22.703a3.84 3.84 0 001.151-2.765c0-1.229-.646-2.412-1.692-3.113H23.607l.564-12.76a2.37 2.37 0 00-.858-1.961 1.944 1.944 0 00-1.24-.431 2.45 2.45 0 00-1.557.584 2.86 2.86 0 00-.922 1.493L13.75 30.9v18.464h24.399c1.198-.592 1.974-1.89 1.974-3.331a3.889 3.889 0 00-.406-1.756l-.816-1.634 1.286-1.222c.729-.694 1.152-1.704 1.152-2.765a3.888 3.888 0 00-.406-1.756l-.816-1.633 1.286-1.222c.729-.695 1.152-1.704 1.152-2.766a3.89 3.89 0 00-.405-1.755l-.817-1.634z" fill="none" stroke="#fff" stroke-miterlimit="20" clip-path="url(&quot;#a&quot;)"/></svg>